<svg width="50" height="50" viewBox="0 0 50 50" fill="none" xmlns="http://www.w3.org/2000/svg">
<g clip-path="url(#clip0_52_46)">
<path d="M0 25V50H25H50V25V0H25H0V25ZM34.0381 7.22168C34.1992 7.3877 34.2139 7.49512 34.0918 7.66602C34.0479 7.73438 33.6377 8.13965 33.1787 8.56934C32.7246 8.99902 30.7031 10.9863 28.6865 12.9932C24.4434 17.2168 24.7119 16.9531 24.6582 16.9189C24.6289 16.9043 24.624 16.9189 24.6338 16.9531C24.6484 16.9922 24.5801 17.0801 24.4629 17.1631C24.3555 17.2461 24.2676 17.334 24.2676 17.3682C24.2676 17.4023 24.2188 17.4512 24.165 17.4854C24.0674 17.5342 24.0625 17.5293 24.0918 17.3779C24.1064 17.2852 24.1357 17.0605 24.1553 16.875C24.1748 16.6406 24.1943 16.5625 24.2285 16.6211C24.2822 16.7188 24.3652 16.7236 24.3652 16.626C24.3652 16.5869 24.4092 16.5283 24.4629 16.4941C24.5166 16.46 24.5605 16.416 24.5605 16.3965C24.5605 16.377 24.5166 16.3672 24.4629 16.3721C24.4092 16.377 24.3652 16.4014 24.3652 16.4307C24.3652 16.4648 24.3311 16.4893 24.292 16.4893C24.1943 16.4893 24.1992 16.4746 24.3408 16.3184C24.4092 16.2451 24.4629 16.2158 24.4629 16.25C24.4629 16.2842 24.4824 16.3037 24.5117 16.2842C24.5361 16.2695 24.5459 16.2305 24.5312 16.1963C24.5215 16.1621 26.5527 14.0967 29.043 11.6064C33.1836 7.47559 33.5938 7.08008 33.7354 7.08008C33.8477 7.08008 33.9404 7.12402 34.0381 7.22168ZM34.917 8.10547C35.083 8.22754 35.1465 8.47656 35.0488 8.65723C34.9072 8.92578 34.2773 9.38477 34.3115 9.19922C34.3262 9.13086 34.1016 8.91602 33.9209 8.82324L33.7793 8.75L34.1309 8.37891C34.5215 7.96875 34.6533 7.91992 34.917 8.10547ZM12.9785 9.48242C13.1689 9.67285 13.3301 9.84375 13.3301 9.86816C13.3301 9.89258 13.3594 9.91211 13.3936 9.91211C13.4863 9.91211 13.9307 10.3809 13.8965 10.4443C13.877 10.4736 13.8916 10.4883 13.9258 10.4736C13.9648 10.459 14.043 10.5029 14.1016 10.5713C14.1992 10.6836 14.2041 10.708 14.1406 10.7666C14.0625 10.8447 13.916 10.8643 13.916 10.8008C13.916 10.7812 13.9453 10.7324 13.9795 10.6934C14.0283 10.6348 14.0234 10.6348 13.9551 10.6885C13.8818 10.7422 13.833 10.7178 13.6035 10.5127C13.4521 10.3857 13.0908 10.0342 12.793 9.73633C12.2803 9.21387 12.1631 9.02344 12.3193 8.96973C12.3926 8.94531 12.5342 9.05273 12.9785 9.48242ZM11.6504 9.35547C11.8652 9.57031 11.9336 9.67773 11.8994 9.71191C11.8604 9.75098 11.8604 9.76562 11.8994 9.76562C11.9336 9.76562 11.9727 9.74121 11.9922 9.71191C12.0117 9.67773 12.207 9.83398 12.4951 10.1172C12.7539 10.376 13.1104 10.7227 13.2959 10.8887C13.4766 11.0596 13.623 11.2207 13.623 11.2451C13.623 11.2695 13.5938 11.2646 13.5547 11.2354C13.501 11.1914 13.4814 11.1963 13.457 11.2549C13.4424 11.2988 13.4473 11.3184 13.4766 11.3037C13.5059 11.2891 13.5254 11.2939 13.5254 11.3232C13.5254 11.4697 13.3838 11.4014 13.0713 11.1035C12.3389 10.4053 11.25 9.3457 11.1914 9.26758C11.1035 9.15527 11.1572 8.97949 11.2695 9.01855C11.3135 9.0332 11.4893 9.18457 11.6504 9.35547ZM33.877 9.05273C34.0625 9.14551 34.1699 9.28223 34.1846 9.42383C34.2139 9.77051 34.1943 9.80469 33.5352 10.4785C32.8467 11.1768 32.6953 11.2988 32.4219 11.3477C32.2754 11.377 31.3525 12.2754 25.9668 17.6611C22.5098 21.1182 19.6729 23.9355 19.6582 23.9209C19.6484 23.9111 19.5361 23.7793 19.4141 23.6328L19.1895 23.3691L21.7432 20.8008C23.1494 19.3896 26.3672 16.1572 28.8965 13.6084C33.7939 8.68164 33.5645 8.8916 33.877 9.05273ZM35.9033 9.08691C36.0449 9.16504 36.084 9.22363 36.084 9.38477C36.084 9.48242 36.0059 9.58496 35.7617 9.80957C35.5811 9.97559 35.4199 10.1074 35.4004 10.1074C35.332 10.1074 35.2539 9.80957 35.2539 9.56055C35.2539 9.36035 35.2783 9.29688 35.3955 9.1748C35.5469 9.02344 35.7227 8.99414 35.9033 9.08691ZM41.3965 9.42871C41.4111 9.51172 39.3311 11.6211 39.2334 11.6211C39.1992 11.6211 39.1455 11.5918 39.1162 11.5527C39.0723 11.499 39.209 11.3379 39.8193 10.7373C40.2393 10.3223 40.6055 9.99023 40.6299 10C40.6592 10.0049 40.6689 9.99023 40.6543 9.9707C40.6152 9.90723 41.2451 9.31152 41.3232 9.33594C41.3525 9.35059 41.3867 9.38965 41.3965 9.42871ZM24.3213 10.8398C25.0293 11.5234 25.8496 12.3193 26.1475 12.6074L26.6846 13.1299L26.582 13.2373C26.5088 13.3057 26.4502 13.3301 26.4014 13.3008C26.3623 13.2764 25.6299 12.5732 24.7705 11.7432C23.916 10.9082 23.0908 10.1074 22.9395 9.96582C22.7832 9.81934 22.6562 9.67285 22.6562 9.63867C22.6562 9.57031 22.832 9.52637 22.9541 9.57031C22.998 9.58496 23.6133 10.1562 24.3213 10.8398ZM28.6963 9.60449C28.75 9.65332 28.9307 9.83887 29.1016 10.0244L29.4092 10.3516L29.3066 10.4639L29.1992 10.5811L28.7598 10.1367C28.5156 9.89258 28.3203 9.66797 28.3203 9.63867C28.3203 9.58008 28.4033 9.54102 28.5449 9.52637C28.5791 9.52637 28.6475 9.56055 28.6963 9.60449ZM21.3672 10.1855C21.709 10.5322 21.958 10.8203 21.9434 10.8496C21.9189 10.8838 21.9336 10.8887 21.9727 10.8643C22.0117 10.8398 22.1826 10.9814 22.4854 11.2793C22.8369 11.6309 22.9346 11.7578 22.9248 11.8506C22.9199 11.9141 22.9248 11.9531 22.9395 11.9434C22.9492 11.9287 22.9932 11.9531 23.0322 11.9922C23.1445 12.1045 23.1738 12.0264 23.0664 11.9043C22.8662 11.6699 23.6084 12.3535 24.5605 13.2764L25.5615 14.2529L25.4492 14.3652L25.3418 14.4775L24.5996 13.7451C24.1943 13.3398 23.75 12.9004 23.6133 12.7686C23.4766 12.6318 23.2812 12.4219 23.1836 12.2998C22.9248 11.9873 22.0068 11.0938 21.3135 10.4883C20.4199 9.70215 20.3223 9.57031 20.6348 9.57031C20.7275 9.57031 20.9082 9.72656 21.3672 10.1855ZM23.2275 10.8643C23.9453 11.5576 24.8975 12.4854 25.3418 12.9248L26.1475 13.7158L26.04 13.8281L25.9277 13.9355L25.7227 13.7451C25.3271 13.374 22.749 10.8789 22.0264 10.1709C21.7285 9.87793 21.5381 9.65332 21.5576 9.61914C21.5771 9.58984 21.665 9.57031 21.7529 9.58008C21.8945 9.59473 22.1094 9.78027 23.2275 10.8643ZM24.7803 10.1904C25.1318 10.5322 25.8252 11.2158 26.333 11.7139L27.2461 12.6123L27.1387 12.7295L27.0312 12.8418L26.2256 12.0459C25.7812 11.6064 25.0879 10.9326 24.6826 10.5469C23.9746 9.86328 23.7793 9.6582 23.7793 9.59961C23.7793 9.58496 23.8623 9.57031 23.9648 9.57031C24.1309 9.57031 24.1992 9.62402 24.7803 10.1904ZM26.5088 10.7861C27.1826 11.4404 27.7344 12.002 27.7344 12.0264C27.7344 12.0557 27.6953 12.1191 27.6514 12.168C27.5732 12.2559 27.5391 12.2314 26.8604 11.5625C26.4697 11.1816 25.8691 10.5908 25.5273 10.2588C25.1807 9.92676 24.9023 9.63379 24.9023 9.60938C24.9023 9.58496 24.9854 9.57031 25.0928 9.58008C25.2637 9.59473 25.376 9.69238 26.5088 10.7861ZM27.3682 10.5176L28.3447 11.4648L28.2324 11.5869L28.1201 11.709L27.1191 10.7275C26.5674 10.1855 26.0938 9.70703 26.0693 9.6582C26.0254 9.58008 26.0449 9.57031 26.2061 9.57031C26.3818 9.57031 26.4502 9.62891 27.3682 10.5176ZM28.1934 10.249C28.8086 10.8643 28.8623 10.9326 28.8135 11.0303C28.7793 11.084 28.7354 11.1328 28.7109 11.1328C28.6914 11.1328 28.335 10.8057 27.9248 10.4102C27.1777 9.68262 27.1045 9.57031 27.3828 9.57031C27.4902 9.57031 27.6562 9.71191 28.1934 10.249ZM9.58984 9.73145C9.5752 9.77051 9.60449 9.8291 9.65332 9.86816C9.73145 9.93164 9.73633 9.92676 9.67773 9.8584C9.62891 9.79492 9.62891 9.77051 9.68262 9.72656C9.73145 9.6875 9.8584 9.78027 10.2295 10.1416C10.498 10.3955 10.6738 10.5762 10.6201 10.542C10.5322 10.4785 10.5273 10.4785 10.5908 10.5615C10.625 10.6055 10.6836 10.6396 10.7129 10.6348C10.7422 10.625 10.7812 10.6396 10.791 10.6689C10.8057 10.6934 10.8594 10.7617 10.9131 10.8154C10.9717 10.8691 10.9814 10.8838 10.9375 10.8496C10.8691 10.8008 10.8545 10.8057 10.8545 10.8643C10.8545 10.9033 10.874 10.9229 10.8936 10.9082C10.9131 10.8984 10.9424 10.9082 10.9619 10.9375C10.9814 10.9668 11.0156 10.9766 11.04 10.957C11.1035 10.9229 11.333 11.1475 11.3477 11.2646C11.3574 11.3135 11.4014 11.3525 11.4551 11.3525C11.5137 11.3525 11.543 11.3818 11.543 11.4355C11.5381 11.4844 11.5527 11.5137 11.5723 11.499C11.6162 11.4746 11.9873 11.8066 11.9531 11.8457C11.9385 11.8604 11.8604 11.8018 11.7822 11.7188C11.6846 11.6162 11.6357 11.5869 11.6357 11.6406C11.6357 11.6797 11.6553 11.7041 11.6748 11.6895C11.7432 11.6504 11.8311 11.8701 11.7725 11.9287C11.7383 11.9629 11.5137 11.7725 11.0254 11.2939C10.6396 10.918 10.1416 10.4346 9.91699 10.2197C9.61914 9.93652 9.51172 9.80957 9.53613 9.75098C9.55078 9.70703 9.58008 9.66797 9.58984 9.66797C9.60449 9.66797 9.60449 9.69727 9.58984 9.73145ZM34.917 10.0928C35 10.1416 35.0684 10.2344 35.0879 10.3174C35.1172 10.459 35.0537 10.5273 33.833 11.7383C33.125 12.4414 30.9521 14.5996 29.0039 16.5332L25.4639 20.0488L26.1035 19.8291L26.748 19.6045L30.9521 15.4297C33.2617 13.1348 35.166 11.2549 35.1855 11.2549C35.2051 11.2549 35.249 11.3623 35.2881 11.4893C35.3516 11.7041 35.3467 11.7334 35.2637 11.8555C35.21 11.9287 33.4766 13.667 31.416 15.7178L27.6611 19.4482L28.0176 19.5117L28.3691 19.5752L31.9043 16.0352C33.8525 14.0918 35.4736 12.5 35.5127 12.5C35.5518 12.5 35.6201 12.5439 35.6689 12.5928C35.7471 12.6855 35.7471 12.6953 35.6543 12.8271C35.5957 12.9004 34.0332 14.4775 32.1826 16.333C30.3271 18.1836 28.8086 19.7119 28.8086 19.7266C28.8086 19.7412 28.9062 19.8047 29.0234 19.8682L29.2334 19.9854L29.375 19.8828C29.4531 19.8291 31.1133 18.1836 33.0664 16.2256C36.2305 13.0518 36.626 12.6758 36.6992 12.7295C36.748 12.7637 36.8359 12.793 36.8994 12.793C36.9629 12.793 37.0117 12.8076 37.0117 12.832C37.0117 12.8906 33.6572 16.2061 32.2559 17.5293C31.5332 18.2129 30.5371 19.1699 30.0342 19.6582L29.126 20.5469L28.9355 20.4492C28.4033 20.1758 28.1152 20.1025 27.6367 20.1025C27.207 20.1025 27.1143 20.1221 26.3672 20.3711C24.8584 20.874 24.2285 21.1768 23.6328 21.6797C22.7734 22.4121 21.7139 23.4229 21.5918 23.6279C21.3623 24.0234 21.4697 24.4775 21.8555 24.6924L22.0459 24.8047H21.1035H20.1611L20.0879 24.6338L20.0146 24.458L20.4492 24.0088C20.6885 23.7598 20.9961 23.4277 21.1279 23.2617C21.2646 23.1006 21.7236 22.6416 22.1484 22.2363C22.5781 21.8359 25.5176 18.9209 28.6865 15.7568C34.0283 10.4297 34.4629 10.0098 34.6143 10.0098C34.7021 10.0098 34.8389 10.0488 34.917 10.0928ZM19.3115 10.4883C20.3662 10.7812 21.167 11.25 21.8701 11.9873C22.3193 12.4609 22.4707 12.6758 22.7344 13.1982C23.2227 14.1602 23.3545 14.7314 23.3594 15.8203C23.3643 16.6699 23.3252 16.9287 23.1104 17.6025C22.8662 18.3691 22.4756 19.0283 21.9043 19.624C21.4404 20.1025 21.0352 20.4053 20.4932 20.6738C19.5996 21.1084 18.9502 21.2549 17.9785 21.2305L17.3047 21.2158L16.6699 20.6299C15.2881 19.3555 14.2822 18.5498 13.2471 17.8955C13.042 17.7637 12.998 17.7051 12.876 17.3828C12.6758 16.8604 12.5928 16.3672 12.5928 15.6738C12.5928 14.7168 12.793 13.9062 13.2129 13.1396C13.9844 11.7334 15.2393 10.7861 16.7969 10.4443C17.3633 10.3174 18.7939 10.3418 19.3115 10.4883ZM39.1455 10.4199C39.1309 10.4492 39.1016 10.4688 39.0723 10.4639C39.043 10.4541 39.0283 10.4834 39.043 10.5225C39.0625 10.5762 39.1016 10.5615 39.1943 10.459C39.2578 10.3857 39.3066 10.3516 39.2969 10.3857C39.2871 10.415 39.0527 10.6787 38.7744 10.9717C38.4912 11.2598 38.0762 11.6943 37.8467 11.9287C37.6172 12.168 37.3975 12.3779 37.3584 12.4023C37.3096 12.4268 37.2217 12.417 37.1338 12.3828L36.9873 12.3193L37.915 11.3818C38.4277 10.8643 38.8867 10.4248 38.9355 10.4053C39.0723 10.3516 39.165 10.3613 39.1455 10.4199ZM8.67188 11.1426C8.68652 11.1328 8.77441 11.1963 8.87207 11.2793C9.00879 11.4062 9.02832 11.4502 8.97949 11.4844C8.92578 11.5186 8.93555 11.5234 8.99902 11.5039C9.04785 11.4893 9.11621 11.5039 9.15039 11.5381C9.18457 11.5674 9.30664 11.6797 9.41895 11.7822C9.53613 11.8848 9.60938 11.9873 9.58984 12.0215C9.56543 12.0557 9.5752 12.0605 9.61426 12.0361C9.6875 11.9922 10.1172 12.3926 10.0732 12.4658C10.0586 12.4951 10.0684 12.5 10.0928 12.4854C10.1562 12.4463 10.5078 12.7393 10.4688 12.7979C10.4541 12.8223 10.4639 12.8369 10.4883 12.832C10.5566 12.8076 11.5283 13.7354 11.5039 13.8037C11.4893 13.8379 11.5088 13.8525 11.5527 13.833C11.6309 13.8037 11.6455 13.8916 11.5723 13.9404C11.5332 13.9648 11.5381 13.9941 11.5771 14.043C11.6211 14.0967 11.6162 14.1113 11.5674 14.1113C11.5088 14.1113 11.5088 14.1211 11.5674 14.1553C11.6113 14.1846 11.6162 14.209 11.5771 14.2285C11.5137 14.2676 11.4258 14.1895 10.5713 13.3789C9.28223 12.1533 8.98438 11.8555 9.01855 11.8018C9.0332 11.7773 9.02344 11.7676 8.99902 11.7822C8.96973 11.8018 8.82324 11.7041 8.67188 11.5674C8.39355 11.3135 8.33496 11.167 8.45703 11.0449C8.50586 10.9961 8.53027 11.001 8.58398 11.0693C8.61816 11.1182 8.65723 11.1475 8.67188 11.1426ZM10.3516 11.3818C10.9766 11.9531 12.0166 13.0127 11.9678 13.0273C11.9385 13.0371 11.9287 13.0664 11.9434 13.0957C11.9629 13.125 11.9922 13.1201 12.0166 13.0811C12.0508 13.0225 12.0703 13.0273 12.1436 13.0957C12.207 13.1641 12.2168 13.1934 12.168 13.2422C12.1338 13.2764 12.1094 13.3447 12.1094 13.3936C12.1094 13.4766 12.0898 13.4717 11.9531 13.3545C11.4941 12.9736 9.91211 11.4062 9.91211 11.333C9.91211 11.1133 10.0781 11.1328 10.3516 11.3818ZM43.3447 11.6699C43.3398 11.7236 43.0029 12.0996 42.5635 12.5342C41.2549 13.8379 40.1904 14.9365 39.502 15.6982C38.6768 16.6113 37.6611 17.6611 35.1953 20.1416C34.0137 21.3281 33.2715 22.1143 33.291 22.1484C33.3105 22.1777 33.4082 22.2949 33.5059 22.4023L33.6816 22.5977L36.7041 19.6045C38.3643 17.9541 39.7266 16.6064 39.7363 16.6016C39.7656 16.5967 39.7412 17.5635 39.7021 17.6172C39.6826 17.6514 38.418 18.9307 36.8994 20.4541C35.376 21.9775 34.1309 23.252 34.1309 23.291C34.1309 23.3252 34.1895 23.4521 34.2578 23.5693L34.3799 23.7842L34.6094 23.5889C34.7363 23.4814 35.3906 22.8418 36.0693 22.1582C36.748 21.4795 37.8418 20.3857 38.501 19.7266L39.6973 18.5303V20.0195V21.5088L37.5488 23.6572C35.8203 25.3906 35.4102 25.8252 35.4297 25.9033C35.4492 25.957 35.5127 26.0938 35.5811 26.2109C35.6982 26.416 35.7031 26.4209 35.7959 26.3379C35.8887 26.2549 35.8936 26.2549 35.8643 26.3477C35.8496 26.3965 35.8643 26.3867 35.8984 26.3184C35.9814 26.1523 36.0645 26.0693 36.1084 26.1133C36.1279 26.1328 36.1328 26.123 36.123 26.0938C36.1035 26.0303 36.5674 25.5566 36.6309 25.5762C36.6553 25.5811 36.6699 25.5713 36.6553 25.5518C36.6455 25.5273 36.7041 25.4443 36.7822 25.3662C36.8652 25.2832 36.9141 25.2539 36.8896 25.293C36.8701 25.332 36.8945 25.3223 36.9482 25.2686C37.002 25.2148 37.041 25.1611 37.0312 25.1514C37.0215 25.1416 37.1484 25.0049 37.3047 24.8486C37.4951 24.6631 37.6221 24.5752 37.6709 24.5898C37.7246 24.6094 37.7344 24.5996 37.7197 24.5459C37.7002 24.502 37.7686 24.3994 37.8955 24.2725C38.0957 24.0771 38.1055 24.0723 38.2031 24.1553C38.3057 24.2432 38.3057 24.2432 38.2178 24.1406C38.1348 24.0381 38.1396 24.0332 38.5059 23.6621C38.8721 23.2959 38.8818 23.291 38.9844 23.374C39.0869 23.4619 39.0869 23.4619 38.999 23.3594C38.916 23.2617 38.9209 23.252 39.1211 23.0322C39.292 22.8418 39.3359 22.8125 39.3994 22.8662C39.4678 22.915 39.4678 22.915 39.4189 22.8516C39.3701 22.7881 39.3896 22.7441 39.5312 22.6123L39.6973 22.4463V23.9551V25.4688L39.4141 25.7471C39.2529 25.8984 39.1113 26.0156 39.0967 26.001C39.0771 25.9863 39.0723 25.9912 39.0869 26.0107C39.126 26.0645 38.9551 26.2207 38.8965 26.1865C38.8672 26.1719 38.8574 26.1768 38.8818 26.1963C38.9258 26.25 38.7695 26.4209 38.7109 26.3867C38.6914 26.3721 38.6768 26.3818 38.6816 26.4062C38.7012 26.4648 38.1592 27.002 38.0859 27.002C38.0615 27.002 38.042 27.0215 38.0469 27.041C38.0664 27.0996 36.958 28.2031 36.8994 28.1836C36.8799 28.1787 36.8701 28.1885 36.8848 28.2129C36.8994 28.2373 36.8457 28.3203 36.7676 28.3936C36.6846 28.4717 36.6211 28.5596 36.6211 28.5938C36.6211 28.7305 35.9082 27.8711 35.5566 27.3145C35.4688 27.1729 34.9805 26.2305 34.4727 25.2148C33.457 23.1787 33.2715 22.8564 32.9541 22.5977C32.8369 22.5 32.2705 22.1875 31.7041 21.9043C31.1328 21.6162 30.6641 21.3623 30.6641 21.3379C30.6641 21.2793 39.5459 12.3535 39.6045 12.3535C39.7021 12.3535 39.7998 12.583 39.751 12.7051C39.7266 12.7686 38.2764 14.248 36.5283 15.9961C34.7803 17.7393 32.915 19.6094 32.3926 20.1562L31.4355 21.1426L31.7627 21.2891C32.085 21.4355 32.2217 21.4746 32.0801 21.3867C32.0264 21.3525 32.1094 21.2451 32.4902 20.8691C32.8662 20.4932 32.9785 20.4102 33.0176 20.4639C33.0566 20.5176 33.0615 20.5127 33.0371 20.4443C33.0029 20.3418 33.1934 20.1025 33.2861 20.1367C33.3252 20.1514 33.335 20.1318 33.3154 20.083C33.291 20.0195 33.3057 20.0098 33.3691 20.0342C33.4277 20.0586 33.4473 20.0488 33.4375 20.0098C33.4082 19.9268 33.5986 19.7168 33.6768 19.7461C33.7109 19.7607 33.7256 19.7412 33.7061 19.6973C33.6816 19.6289 33.7646 19.5996 33.8037 19.6631C33.8135 19.6875 33.8135 19.6729 33.8037 19.6387C33.7842 19.5459 34.1162 19.2236 34.1846 19.2676C34.2236 19.2871 34.2285 19.2822 34.209 19.2432C34.1846 19.209 34.2432 19.1162 34.3506 19.0088C34.4971 18.8623 34.5361 18.8428 34.5801 18.9014C34.6191 18.9551 34.624 18.9502 34.5996 18.8818C34.5654 18.7695 34.8779 18.4326 34.9658 18.4863C35.0049 18.5059 35.0098 18.501 34.9902 18.4619C34.9414 18.3887 38.4082 14.9219 38.4814 14.9707C38.5156 14.9902 38.5303 14.9756 38.5156 14.9365C38.4912 14.8584 39.7119 13.6426 39.8486 13.6084C39.9512 13.5791 40.1025 13.7305 40.0781 13.833C40.0537 13.9551 38.7988 15.2734 38.7305 15.2539C38.6963 15.2441 38.6816 15.2588 38.6963 15.2881C38.7158 15.3125 38.667 15.4004 38.5889 15.4736C38.5156 15.5469 37.4121 16.6553 36.1426 17.9346C34.4434 19.6484 33.8135 20.2539 33.75 20.2344C33.6816 20.21 33.6768 20.2148 33.7402 20.2588C33.7988 20.2979 33.6914 20.4297 33.1494 20.9717L32.4854 21.6309L32.7295 21.7822L32.9785 21.9336L33.0957 21.7969C33.1641 21.7188 34.4043 20.4541 35.8594 18.9893C37.3145 17.5244 38.8916 15.918 39.375 15.415C39.8535 14.9121 40.2686 14.5166 40.293 14.5312C40.3125 14.5459 40.3271 14.541 40.3223 14.5166C40.3027 14.4531 41.2988 13.4766 41.3818 13.4766C41.4209 13.4766 41.4502 13.4473 41.4453 13.4131C41.4355 13.3838 41.46 13.3594 41.4941 13.3691C41.5234 13.374 41.5479 13.3594 41.543 13.3398C41.5234 13.2812 41.9189 12.8857 41.9629 12.915C41.9775 12.9297 41.9824 12.9248 41.9678 12.9053C41.9287 12.8516 42.1484 12.6465 42.207 12.6807C42.2363 12.6953 42.2461 12.6953 42.2266 12.6709C42.1826 12.627 43.208 11.5771 43.2959 11.5723C43.3252 11.5723 43.3496 11.6162 43.3447 11.6699ZM38.9258 12.002L39.0576 12.0898L36.5088 14.624C32.6172 18.5059 31.3379 19.7998 29.2725 21.9482C28.6328 22.6221 27.998 23.2715 27.8662 23.3984L27.6318 23.6279L27.4658 23.4717L27.3047 23.3154L27.7002 22.9004C28.4961 22.0654 38.6963 11.9189 38.7451 11.9189C38.7744 11.9141 38.8525 11.9531 38.9258 12.002ZM9.95605 13.6328C10.0098 13.6865 10.0146 13.6816 9.98535 13.623C9.96582 13.584 10.0049 13.6035 10.0732 13.6719C10.1367 13.7402 10.2393 13.833 10.2979 13.8818C10.3564 13.9307 10.3906 13.9844 10.3809 14.0088C10.3662 14.0332 10.3906 14.0479 10.4395 14.043C10.4834 14.043 10.5176 14.0674 10.5127 14.0967C10.5029 14.1309 10.5273 14.1602 10.5615 14.1602C10.6543 14.1602 11.1377 14.6875 11.084 14.7217C11.0059 14.7705 11.0791 14.8438 11.167 14.8096C11.2305 14.7852 11.2402 14.7998 11.2158 14.873C11.1816 14.9609 11.1865 14.9609 11.25 14.8779C11.3086 14.7998 11.3184 14.8047 11.3184 14.917C11.3184 14.9854 11.3037 15.0293 11.2891 15.0195C11.2744 15.0049 11.2354 15.0146 11.1963 15.0439C11.1182 15.1123 10.9717 15.0098 11.0205 14.9219C11.0352 14.8926 11.0352 14.8828 11.0107 14.9023C10.9375 14.9707 9.76562 13.8623 9.76562 13.7256C9.76562 13.5742 9.84863 13.5352 9.95605 13.6328ZM24.4922 14.3262C24.7461 14.5654 24.9512 14.7852 24.9512 14.8047C24.9512 14.8291 24.917 14.8877 24.873 14.9268C24.8047 15 24.7559 14.9658 24.3457 14.5312C24.0137 14.1846 23.8818 14.0088 23.8428 13.8623L23.7891 13.667L23.916 13.7793C23.9795 13.8428 24.2432 14.0869 24.4922 14.3262ZM10.708 15.542C10.6934 15.5713 10.6982 15.5762 10.7275 15.5615C10.7959 15.5176 10.9961 15.7178 10.957 15.7861C10.9375 15.8203 10.9424 15.8301 10.9619 15.8057C11.0107 15.7617 11.1914 15.9131 11.1523 15.9717C11.1377 15.9961 11.1572 16.0059 11.1914 15.9912C11.2256 15.9814 11.2939 16.0205 11.3379 16.0889C11.416 16.1914 11.416 16.2109 11.3477 16.2793C11.2598 16.3721 11.2939 16.3818 11.4355 16.3037C11.5137 16.2598 11.5283 16.2646 11.4941 16.3184C11.4697 16.3525 11.4502 16.4014 11.4502 16.4307C11.4404 16.499 11.5283 16.6064 11.5674 16.5771C11.5869 16.5674 11.6064 16.5869 11.6064 16.626C11.6064 16.665 11.5918 16.6992 11.5771 16.6992C11.5381 16.6992 11.0791 16.3086 10.7324 15.9717C10.415 15.6689 10.4004 15.6445 10.4004 15.4248V15.1953L10.5713 15.3418C10.6641 15.4248 10.7275 15.5176 10.708 15.542ZM10.7031 16.8555C10.7715 16.9043 10.8447 16.9434 10.8594 16.9434C10.8936 16.9434 11.2549 17.1777 11.46 17.3291C11.5479 17.3926 11.6016 17.4707 11.5869 17.4951C11.5723 17.5244 11.582 17.5293 11.6113 17.5098C11.6699 17.4756 12.4951 17.998 12.7686 18.2373C12.8516 18.3105 13.0078 18.4375 13.1201 18.5156C13.2324 18.5986 13.3154 18.6865 13.2959 18.7158C13.2812 18.7451 13.291 18.75 13.3203 18.7305C13.3936 18.6865 13.7793 18.9893 13.7354 19.0576C13.7207 19.0869 13.7305 19.0918 13.7646 19.0723C13.8184 19.0381 14.2773 19.3799 14.6533 19.7314C14.7314 19.8047 14.7949 19.8535 14.7949 19.8389C14.7949 19.8291 14.9463 19.9512 15.1367 20.1221C15.3223 20.2881 15.4639 20.4395 15.4492 20.4639C15.4346 20.4883 15.4541 20.4932 15.4883 20.4834C15.5713 20.4492 16.9531 21.7676 16.9092 21.8359C16.8945 21.8652 16.8994 21.875 16.9287 21.8604C16.958 21.8408 17.1191 21.9775 17.2852 22.1582C17.4561 22.3389 17.6855 22.5781 17.793 22.6904C17.9639 22.876 17.9785 22.9053 17.915 22.9834C17.8516 23.0615 17.8564 23.0664 17.9346 23.0029C18.0127 22.9443 18.042 22.959 18.0225 23.0615C18.0176 23.0859 18.0371 23.0908 18.0615 23.0762C18.0859 23.0566 18.2715 23.2373 18.4668 23.4717C18.6621 23.7109 18.8721 23.9551 18.9355 24.0234C18.999 24.0918 19.1943 24.3555 19.375 24.6094C19.5508 24.8633 19.7168 25.0928 19.7363 25.1221C19.7559 25.1465 19.8682 25.293 19.9805 25.4395C20.0928 25.5859 20.2686 25.8008 20.3711 25.918C20.4736 26.0303 20.5469 26.1475 20.5322 26.1719C20.5176 26.2012 20.5371 26.2061 20.5762 26.1914C20.6201 26.1768 20.6543 26.1865 20.6543 26.2158C20.6543 26.333 20.7715 26.2451 21.3232 25.7129C22.1924 24.8779 22.1924 24.8779 22.583 24.8145C22.7734 24.7852 22.9736 24.7461 23.0371 24.7266C23.0957 24.7119 23.1445 24.7168 23.1445 24.7461C23.1445 24.7705 22.7344 25.1855 22.2314 25.6641C21.7236 26.1426 21.1621 26.6846 20.9766 26.875L20.6445 27.2119L20.6641 27.4512C20.708 27.8955 21.0303 28.1738 21.4893 28.1738C21.6504 28.1738 21.7773 28.1885 21.7773 28.208C21.7773 28.2275 21.6748 28.3447 21.5527 28.4717C21.2939 28.7305 21.2842 28.7305 20.9229 28.4619C20.5225 28.1689 20.1807 27.7441 20.2344 27.6074C20.2539 27.5488 20.2441 27.5342 20.1904 27.5586C20.1416 27.5781 19.9609 27.4414 19.6631 27.1729C19.126 26.6748 18.877 26.3818 18.3496 25.6348C17.0654 23.8184 15.9619 22.6758 13.623 20.7227C12.5879 19.8584 11.3623 18.9111 10.7422 18.4961C10.4443 18.2959 10.4248 18.2764 10.4102 18.0762C10.4004 17.959 10.415 17.8711 10.4443 17.8711C10.4883 17.8711 11.2695 18.3838 11.5723 18.6133C11.6406 18.6621 12.0117 18.9453 12.4023 19.2334C12.793 19.5264 13.1055 19.79 13.0957 19.8242C13.0908 19.8535 13.1055 19.8682 13.125 19.8535C13.1982 19.8096 14.6143 20.9814 14.5703 21.0498C14.5557 21.0742 14.5752 21.084 14.6094 21.0693C14.6875 21.0449 15.0049 21.3232 14.9707 21.3818C14.9561 21.4062 14.9707 21.4209 15.0098 21.416C15.1807 21.4014 17.0312 23.2812 17.8467 24.3018C18.0762 24.5947 18.3008 24.8682 18.3398 24.917C18.3789 24.9609 18.4082 25.0146 18.4082 25.0342C18.4082 25.0537 18.4473 25.1123 18.4961 25.166C18.6914 25.3809 19.3359 26.3672 19.3359 26.4453C19.3359 26.4941 19.3506 26.5137 19.3652 26.499C19.4043 26.46 19.6777 26.8164 19.6484 26.8652C19.6387 26.8799 19.6533 26.9141 19.6826 26.9336C19.7217 26.958 19.7314 26.9434 19.707 26.8994C19.668 26.8213 19.8145 26.9873 19.9121 27.1289C19.9463 27.1826 19.9609 27.1875 19.9414 27.1484C19.9219 27.1094 19.9658 27.1289 20.0342 27.1924C20.1074 27.2607 20.166 27.3584 20.1709 27.4121C20.1758 27.5 20.1807 27.5 20.2148 27.3926C20.2344 27.3242 20.2539 27.1973 20.2588 27.1094C20.2637 27.0215 20.3125 26.8555 20.3662 26.7432C20.4395 26.6064 20.4492 26.5576 20.4004 26.6016C20.3418 26.6504 20.3125 26.6504 20.2686 26.5967C20.2393 26.5576 20.2344 26.5088 20.2539 26.4893C20.2734 26.4648 20.2637 26.4648 20.2344 26.4795C20.2051 26.4941 20.0977 26.4209 19.9951 26.3184C19.8877 26.2109 19.8242 26.123 19.8486 26.123C19.8779 26.123 19.8584 26.0986 19.8145 26.0742C19.7705 26.0449 19.6289 25.8643 19.502 25.6689C19.2236 25.2539 18.6475 24.4922 18.0713 23.7793C17.5586 23.1494 15.6396 21.2158 14.9365 20.625C14.0625 19.8877 13.2373 19.2285 12.5977 18.75C12.2607 18.501 11.9092 18.2373 11.8164 18.1689C11.7236 18.0957 11.4844 17.9297 11.2842 17.7979C10.332 17.1533 10.4248 17.2412 10.4102 16.958C10.3955 16.6748 10.4248 16.665 10.7031 16.8555ZM10.7812 19.0967C10.9082 19.1846 11.0547 19.292 11.1084 19.3457C11.1621 19.3945 11.4307 19.5996 11.709 19.8047C12.002 20.0195 12.1973 20.1953 12.1777 20.2246C12.1582 20.2588 12.168 20.2637 12.1973 20.2441C12.2656 20.2002 13.1152 20.8887 13.1055 20.9766C13.1006 21.0156 13.1152 21.0303 13.1396 21.0156C13.1885 20.9863 13.4229 21.1719 14.0967 21.7627C14.1846 21.8359 14.4092 22.0312 14.5947 22.1924C14.7803 22.3535 14.9268 22.5146 14.917 22.5488C14.9023 22.5879 14.917 22.5977 14.9463 22.5781C15.0146 22.5391 16.167 23.6816 16.1279 23.7451C16.1133 23.7744 16.1182 23.7793 16.1475 23.7646C16.2061 23.7256 17.2852 24.9219 17.2852 25.0244C17.2852 25.0439 17.3242 25.0879 17.3682 25.1221C17.4414 25.1758 17.4463 25.1953 17.3828 25.2734C17.3145 25.3564 17.3193 25.3613 17.3926 25.3027C17.4609 25.249 17.5 25.2832 17.7197 25.6201C18.0664 26.1475 18.1055 26.3672 17.8564 26.3672C17.7148 26.3672 17.6758 26.3184 17.3096 25.7324C16.7041 24.7607 15.5566 23.5156 14.0625 22.2119C13.1348 21.4062 12.168 20.5957 11.6504 20.1953C11.333 19.9512 10.9229 19.6338 10.7373 19.4922C10.4883 19.3018 10.4004 19.1992 10.4004 19.1162C10.4004 19.0234 10.4395 18.9746 10.5371 18.9502C10.5469 18.9453 10.6543 19.0137 10.7812 19.0967ZM10.6055 20.0146C10.6689 20.1025 10.6934 20.1172 10.7959 20.1172C10.8252 20.1172 10.8398 20.1514 10.8252 20.1855C10.8057 20.2344 10.8203 20.249 10.8594 20.2344C10.8936 20.2197 11.0059 20.2832 11.1035 20.376C11.2012 20.4688 11.2793 20.5322 11.2793 20.5176C11.2793 20.5029 11.3232 20.5322 11.377 20.5811C11.4551 20.6543 11.4648 20.6836 11.4111 20.7471C11.3574 20.8154 11.3623 20.8154 11.4355 20.7617C11.5088 20.7031 11.582 20.7471 12.0557 21.1426C12.3535 21.3916 12.583 21.6162 12.5635 21.6455C12.5488 21.6699 12.5586 21.6797 12.5879 21.6602C12.6465 21.626 13.2129 22.1045 13.1934 22.1729C13.1885 22.1973 13.2031 22.2119 13.2275 22.207C13.2959 22.1826 13.7695 22.6172 13.7354 22.6709C13.7158 22.7002 13.7305 22.7051 13.7646 22.6807C13.8525 22.6318 14.3066 23.0811 14.2725 23.1885C14.2529 23.2568 14.2578 23.2568 14.3018 23.1934C14.3457 23.1348 14.4629 23.2324 14.9854 23.75C15.5518 24.3115 15.6104 24.3896 15.542 24.4531C15.4785 24.5215 15.4785 24.5361 15.5811 24.6143C15.6445 24.6631 15.6787 24.7168 15.6592 24.7363C15.6396 24.7559 15.4199 24.5752 15.1709 24.3311C14.6338 23.8037 14.126 23.3301 13.7939 23.0469C13.6621 22.9297 13.4277 22.7344 13.2812 22.6074C12.6123 22.0264 12.1338 21.6211 11.582 21.1719C11.2598 20.9033 11.001 20.6689 11.0156 20.6445C11.0303 20.6201 11.0205 20.6104 10.9912 20.6152C10.9668 20.625 10.8203 20.5371 10.6738 20.4199C10.4492 20.249 10.4004 20.1807 10.4004 20.0635C10.4004 19.8975 10.5078 19.873 10.6055 20.0146ZM10.7373 21.1279C11.6846 21.8652 14.126 24.0088 15.2588 25.0977C15.5811 25.4053 16.0303 25.835 16.2598 26.0498C17.1582 26.8945 20.0781 29.7656 20.127 29.8486C20.1611 29.9219 20.1514 29.9658 20.0635 30.0586C20 30.127 19.9219 30.1709 19.8926 30.166C19.8584 30.1562 18.9795 29.3164 17.9346 28.2959C16.8945 27.2754 15.7129 26.123 15.3076 25.7324C13.9697 24.4336 11.1279 21.7773 10.6055 21.3379C10.4785 21.2305 10.4004 21.1279 10.4004 21.0547C10.4004 20.9033 10.4688 20.918 10.7373 21.1279ZM10.3027 21.709C10.4785 21.8604 11.2451 22.583 12.0068 23.3105C12.7686 24.0381 13.4521 24.6875 13.5205 24.751C14.292 25.459 16.748 27.8271 17.9688 29.0381L19.5068 30.5664L19.3848 30.6836L19.2627 30.8057L17.2119 28.7939C15.2686 26.8896 11.4258 23.1982 10.2881 22.1484C10 21.8799 9.76562 21.6357 9.76562 21.6064C9.76562 21.5381 9.86816 21.4355 9.93652 21.4355C9.96094 21.4355 10.127 21.5576 10.3027 21.709ZM18.7012 22.1436C18.7012 22.1924 18.7451 22.2168 18.8379 22.2119L18.9697 22.207L18.8477 22.168C18.7402 22.1338 18.7451 22.1289 18.9062 22.124C19.043 22.1191 19.1016 22.1436 19.1406 22.2168C19.1797 22.29 19.2236 22.3096 19.292 22.29C19.3457 22.2705 19.2627 22.3828 19.0967 22.5488L18.8037 22.8418L18.584 22.6221L18.3643 22.4023L18.4814 22.2754C18.5498 22.2021 18.6035 22.1289 18.6035 22.1094C18.6035 22.085 18.6279 22.0703 18.6523 22.0703C18.6816 22.0703 18.7012 22.1045 18.7012 22.1436ZM10.7178 23.2031C13.6719 26.0352 15.1611 27.4805 17.4707 29.7607L18.9551 31.2305L18.8916 31.4355C18.8623 31.5479 18.8184 31.6406 18.8037 31.6406C18.7891 31.6406 17.5781 30.4492 16.1133 28.9893C14.6484 27.5342 13.0225 25.9229 12.5 25.415C11.9775 24.9072 11.1865 24.1357 10.7422 23.7061C10.3027 23.2764 9.8584 22.8467 9.75586 22.749C9.61914 22.6172 9.57031 22.5293 9.57031 22.417C9.57031 22.3047 9.59473 22.2656 9.6582 22.2656C9.70215 22.2656 10.1807 22.6855 10.7178 23.2031ZM27.1729 22.4902C27.0703 22.583 26.8115 22.7393 26.6016 22.8369C26.3916 22.9346 26.2207 23.0322 26.2207 23.0518C26.2207 23.0713 26.2793 23.125 26.3574 23.1738C26.7822 23.4521 28.2178 24.6533 28.8477 25.2686C29.7266 26.1133 29.8291 26.1719 31.0303 26.4844C31.8994 26.709 32.3682 26.8701 32.2949 26.9141C32.2705 26.9287 32.085 26.9678 31.8848 26.9971C31.5918 27.041 31.416 27.041 31.0059 26.9824C29.7559 26.8018 29.4287 26.6357 28.4473 25.6836C27.6074 24.8779 27.1924 24.5215 26.2256 23.7939C25.5176 23.2617 25.2783 23.1445 24.8828 23.1445C24.209 23.1494 23.7207 23.7451 23.9014 24.3457C23.999 24.668 24.4043 25.1074 25.7031 26.2793C27.6807 28.0762 27.915 28.3398 28.4912 29.4092C28.8916 30.1514 29.2041 30.5762 29.7119 31.0791C30.4785 31.8311 31.3623 32.3584 32.6562 32.8369C32.9883 32.959 33.3252 33.0908 33.4131 33.1348C33.6133 33.2422 34.1309 33.6377 34.1309 33.6865C34.1309 33.7549 30.0195 37.7344 29.7119 37.9688C29.3359 38.252 28.7402 38.54 28.2471 38.6816C27.6904 38.8379 26.6602 38.8379 26.1084 38.6816C25.4639 38.4961 25.0244 38.2422 24.4678 37.7246C24.292 37.5586 24.0137 37.3193 23.8525 37.1973C23.4619 36.8994 23.1641 36.5723 23.1201 36.3867C23.1006 36.2939 22.9541 36.1035 22.7393 35.8789C21.8945 35.0146 20.415 33.4912 20.1221 33.1885L19.7998 32.8613L19.9609 32.71L20.1221 32.5586L20.542 32.9688C22.0752 34.458 23.4814 35.918 23.5059 36.04C23.5986 36.5088 24.0527 37.041 24.5068 37.2119C24.9756 37.3877 25.6299 37.2949 25.9473 37.002C26.001 36.9531 26.0693 36.9141 26.1035 36.9141C26.1328 36.9141 26.1572 36.875 26.1523 36.8311C26.1523 36.7773 26.1865 36.7383 26.2549 36.7285C26.3281 36.7188 26.3525 36.6895 26.333 36.6357C26.3184 36.5918 26.3232 36.5674 26.3477 36.582C26.3721 36.5918 26.4648 36.6357 26.5527 36.6699C26.6357 36.709 26.709 36.7578 26.709 36.7822C26.709 36.8066 26.7432 36.8018 26.7822 36.7676C26.8408 36.7188 26.8555 36.7188 26.8555 36.7676C26.8555 36.8945 26.1572 37.5488 25.8838 37.6758L25.6152 37.8027L25.7373 37.8955C25.9912 38.0957 26.3721 38.1982 26.9189 38.2227C27.207 38.2324 27.5146 38.2275 27.6074 38.2129C27.8027 38.1738 27.6904 38.2812 30.2979 35.7178C31.4697 34.5605 32.4854 33.5889 32.5537 33.5547C32.7051 33.4717 32.6758 33.4424 32.2754 33.3008C32.0996 33.2422 31.7529 33.0957 31.499 32.9785C31.0254 32.7588 30.9277 32.7295 30.8984 32.8125C30.8691 32.8955 29.6729 34.0869 29.6338 34.0723C29.5996 34.0576 27.7197 32.1973 27.4023 31.8604C27.3389 31.792 27.3047 31.7139 27.3242 31.6846C27.3438 31.6455 27.3389 31.6406 27.2998 31.6602C27.2266 31.709 26.8848 31.3672 26.9336 31.2939C26.9531 31.2598 26.9482 31.25 26.9189 31.2646C26.8506 31.3086 26.1621 30.6201 26.2061 30.5518C26.2207 30.5273 26.2109 30.5176 26.1865 30.5322C26.1572 30.5518 26.1084 30.5322 26.0742 30.4932C26.0205 30.4297 26.0596 30.3711 26.3135 30.1367C26.4746 29.9805 26.6113 29.8682 26.6113 29.8828C26.6113 29.8975 26.582 29.9414 26.5527 29.9805C26.5186 30.0146 26.582 29.9756 26.6943 29.8877C26.8115 29.7998 26.9189 29.7021 26.9336 29.6729C26.9531 29.6387 26.9141 29.6631 26.8457 29.7217C26.6602 29.8975 26.6211 29.8535 26.8018 29.668C26.9043 29.5605 26.9922 29.5117 27.041 29.5312C27.0947 29.5508 27.1094 29.5361 27.085 29.4824C27.0654 29.4238 27.0996 29.3896 27.2021 29.3506C27.2852 29.3213 27.3389 29.2822 27.3242 29.2578C27.3096 29.2334 27.3438 29.1699 27.3975 29.1211C27.4951 29.0332 27.5 29.0332 27.5684 29.126C27.6172 29.1895 27.6367 29.1992 27.6367 29.1455C27.6318 29.0625 27.5537 28.9209 27.4023 28.7354C27.2998 28.6035 27.2803 28.5986 27.1826 28.6621C27.124 28.6963 26.9922 28.7695 26.8945 28.8232C26.5918 28.9844 26.0156 29.4434 25.5371 29.8926L25.0879 30.3174L25.2002 30.4785C25.2637 30.5664 25.3418 30.6592 25.376 30.6787C25.4102 30.7031 25.4248 30.7422 25.4102 30.7715C25.3906 30.8008 25.3955 30.8105 25.4248 30.7959C25.4492 30.7764 25.5176 30.8154 25.5713 30.874C25.625 30.9326 26.46 31.7627 27.4316 32.7197C28.4033 33.6768 29.1992 34.4824 29.1992 34.5068C29.1992 34.5312 29.1211 34.624 29.0283 34.7168L28.8574 34.8828L28.3643 34.3994C27.8467 33.8818 25.7178 31.6748 25.0928 31.001L24.7266 30.6006L24.3945 30.7129C23.9941 30.8447 23.6182 30.8301 23.2861 30.6641C23.0322 30.5371 22.6074 30.1416 22.6074 30.0293C22.6074 29.9854 22.6709 29.8877 22.7539 29.8193L22.9004 29.6875L22.9688 29.8242C23.1348 30.1416 23.4766 30.3223 23.9111 30.3223C24.3115 30.3223 24.5703 30.1807 25.293 29.5898C25.8984 29.0918 26.6113 28.5889 26.8994 28.4619C26.9824 28.4229 27.0508 28.3789 27.0508 28.3643C27.0508 28.3203 26.1523 27.4609 25.3174 26.709C23.5889 25.1562 23.2422 24.707 23.2422 24.043C23.2422 23.5254 23.6523 22.9199 24.1553 22.6953C24.5068 22.5439 25.1318 22.5195 25.5078 22.6465L25.8008 22.7441L26.4355 22.5293C26.7871 22.4121 27.1436 22.3145 27.2217 22.3193H27.3682L27.1729 22.4902ZM9.22852 24.2529C10.1025 25.1318 12.0557 27.1045 13.5742 28.6377C15.0928 30.166 16.7334 31.8262 17.2217 32.3242L18.1055 33.2227L17.9834 33.4668L17.8613 33.7109L15.2686 31.0986C13.8428 29.6631 11.46 27.2705 9.97559 25.7812C7.91016 23.7061 7.27539 23.042 7.27539 22.9541C7.27539 22.8027 7.40723 22.6562 7.53906 22.6562C7.6123 22.6562 8.13965 23.1543 9.22852 24.2529ZM10.9961 24.6631C14.6924 28.291 18.5547 32.1582 18.5547 32.2412C18.5547 32.334 18.4033 32.666 18.3643 32.666C18.3398 32.666 12.9297 27.2168 10.083 24.3262C9.43848 23.6719 8.90625 23.0908 8.89648 23.042C8.87207 22.9053 8.96973 22.8027 9.08203 22.8418C9.13086 22.8613 9.99512 23.6816 10.9961 24.6631ZM29.5117 25.0977C29.6729 25.1221 29.8047 25.1514 29.8145 25.1562C29.8242 25.1758 30.0293 25.8301 30.0293 25.8594C30.0293 25.874 29.9414 25.835 29.8291 25.7764C29.6094 25.6641 29.248 25.3516 29.0918 25.1367L28.9941 24.9951L29.1113 25.0195C29.1699 25.0342 29.3555 25.0684 29.5117 25.0977ZM10.2979 26.8896C10.6787 27.29 12.0508 28.6816 13.3447 29.9854C14.6387 31.2891 16.6748 33.3496 17.8711 34.5703C22.041 38.8281 23.3398 40.1074 23.7305 40.3662C24.502 40.8789 25.0732 41.1328 25.8398 41.2939C26.4404 41.4209 27.7051 41.4111 28.3008 41.2744C29.1943 41.0645 29.9463 40.6934 30.6738 40.0977C30.8789 39.9316 31.6895 39.1748 32.4756 38.4131C33.2666 37.6514 34.4189 36.5479 35.0342 35.9619C36.7725 34.3115 38.0762 33.0469 40.5957 30.5762C42.2266 28.9795 42.3096 28.9062 42.4854 28.9062C42.627 28.9062 42.6904 28.9355 42.7686 29.0332C42.8906 29.1846 42.8955 29.3018 42.8027 29.4824C42.7197 29.6387 42.2217 30.083 41.958 30.2344C41.6895 30.3857 41.3818 30.6396 41.0156 31.0059C40.332 31.6943 37.0361 34.873 35.2539 36.5723C34.7314 37.0703 33.7158 38.042 32.9932 38.7354C31.3916 40.2734 30.9521 40.6592 30.4297 41.001C29.3604 41.7041 28.1445 42.0312 26.8066 41.9775C25.8496 41.9385 25.0928 41.748 24.2432 41.3281C23.4326 40.9326 22.9297 40.498 20.874 38.4229C19.8242 37.3633 18.5938 36.1035 18.1396 35.6201C16.7773 34.1748 12.041 29.3652 9.8291 27.168C9.42871 26.7773 9.22852 26.543 9.22852 26.4697C9.22852 26.3037 9.33594 26.1719 9.47754 26.1719C9.58008 26.1719 9.75098 26.3232 10.2979 26.8896ZM39.2627 28.1006C38.7793 28.5889 38.7793 28.5889 38.8477 28.7354C38.8818 28.8135 38.9111 28.9209 38.916 28.9697C38.916 29.043 38.5986 29.3701 38.1299 29.7754L37.9541 29.9268L37.4805 29.4629L37.0068 28.999L38.3643 27.6465L39.7217 26.2939L39.7363 26.9482L39.751 27.6074L39.2627 28.1006ZM24.4287 26.6846C24.6436 26.875 24.8535 26.6162 22.4902 29.0771C21.8408 29.7461 21.1523 30.4688 20.9521 30.6787L20.5859 31.0596L20.415 30.8838L20.2441 30.7129L20.8008 30.1416C22.0166 28.8916 23.8672 26.9678 24.043 26.7676C24.1455 26.6553 24.2432 26.5625 24.2627 26.5625C24.2773 26.5625 24.3506 26.6211 24.4287 26.6846ZM19.6387 27.8662C20.332 28.5596 20.8984 29.1455 20.8984 29.1748C20.8984 29.1992 20.8252 29.2969 20.7373 29.3848L20.5762 29.541L19.2969 28.2666C18.5596 27.5293 18.0176 26.9531 18.0176 26.9043C18.0176 26.8115 18.2324 26.6113 18.3301 26.6113C18.3594 26.6113 18.9502 27.1777 19.6387 27.8662ZM25.7324 27.5342C25.9961 27.6172 26.001 27.6172 25.8789 27.6807C25.8105 27.7197 25.4297 27.959 25.0244 28.2227C24.624 28.4814 24.0967 28.8086 23.8525 28.9502C23.3447 29.248 23.3447 29.248 24.2432 28.3691C25.3076 27.3291 25.2295 27.373 25.7324 27.5342ZM11.6162 29.917L12.6221 30.9082L12.5 31.0303L12.3779 31.1523L11.3916 30.21L10.4102 29.2725L10.4053 29.0088L10.4004 28.7451L10.5078 28.8379C10.5664 28.8867 11.0645 29.375 11.6162 29.917ZM40.918 29.2188C40.9521 29.2627 40.957 29.3164 40.9326 29.3555C40.8643 29.4629 39.2285 31.0547 39.1846 31.0547C39.1406 31.0547 39.0186 30.9033 39.0137 30.8398C39.0137 30.752 40.6738 29.1504 40.7666 29.1504C40.8154 29.1504 40.8838 29.1846 40.918 29.2188ZM11.543 31.001C12.0264 31.4844 12.0312 31.4893 11.9385 31.5918C11.8896 31.6455 11.8311 31.6846 11.8115 31.6797C11.792 31.6699 11.4697 31.3721 11.0889 31.0107C10.4004 30.3613 10.4004 30.3613 10.4004 30.1416V29.9219L10.7324 30.2148C10.9131 30.376 11.2793 30.7324 11.543 31.001ZM24.8779 33.2324C26.3818 34.7559 27.6221 36.0205 27.6318 36.0449C27.6465 36.0938 27.1924 36.543 27.041 36.626C26.9531 36.6748 26.9482 36.665 26.9336 36.5088C26.9287 36.46 26.7578 36.2451 26.5088 35.9814C26.4648 35.9375 26.4014 35.7861 26.3721 35.6494C26.3428 35.5078 26.2891 35.3369 26.25 35.2637C26.1621 35.0977 25.7764 34.7266 25.4883 34.5361C25.2539 34.3799 21.8604 30.9424 21.8359 30.835C21.8213 30.7764 22.0508 30.4688 22.1143 30.4688C22.1289 30.4688 23.374 31.7139 24.8779 33.2324ZM11.3672 31.9727C11.4355 32.0801 11.4355 32.0947 11.3379 32.1924L11.2305 32.2998L10.8203 31.8896C10.415 31.4893 10.3564 31.3867 10.3906 31.1621C10.4053 31.0645 10.4541 31.0938 10.8496 31.4551C11.0938 31.6748 11.3232 31.9092 11.3672 31.9727ZM23.1152 32.9199C23.9111 33.7305 24.5605 34.4092 24.5605 34.4287C24.5605 34.4434 24.4775 34.4922 24.3799 34.5312L24.1943 34.5996L22.8711 33.252C21.4893 31.8457 21.1914 31.5332 21.1914 31.4697C21.1914 31.4502 21.2402 31.3916 21.2939 31.3428C21.3965 31.2549 21.4014 31.2549 21.5381 31.3477C21.6113 31.4062 22.3242 32.1094 23.1152 32.9199ZM13.1738 31.4111L13.2812 31.5234L11.8408 32.9541L10.4004 34.3848V34.1211V33.8623L11.7041 32.583C12.4268 31.8799 13.0273 31.3037 13.042 31.2988C13.0566 31.2988 13.1152 31.3477 13.1738 31.4111ZM41.665 31.6992C41.6895 31.7773 41.6455 31.8506 41.5137 31.9775C41.4111 32.0752 40.8789 32.5928 40.332 33.125C39.2188 34.2041 38.5791 34.8242 37.5928 35.7666C35.9082 37.3779 34.9365 38.3105 34.8682 38.3838C34.8242 38.4277 34.6924 38.5449 34.5752 38.6426L34.3604 38.8232L34.2188 38.6865C34.0869 38.5596 34.082 38.5498 34.1797 38.5156C34.2334 38.4961 34.2773 38.4521 34.2773 38.4131C34.2773 38.3789 34.4482 38.1934 34.6582 38.0029C34.8633 37.8125 35.1709 37.5293 35.332 37.3682C35.498 37.2119 35.7959 36.9336 35.9912 36.748C36.3867 36.3818 38.2324 34.6094 38.7939 34.0576C38.9844 33.8672 39.3506 33.5205 39.6045 33.2812C39.8584 33.0469 40.3369 32.583 40.6738 32.2559C41.0107 31.9238 41.3379 31.6211 41.4014 31.5771C41.5381 31.4893 41.6211 31.5283 41.665 31.6992ZM13.7598 32.0459L13.8672 32.1631L12.1484 33.8672L10.4248 35.5713L10.4102 35.3271L10.3906 35.083L11.9922 33.5059C12.8711 32.6416 13.6035 31.9336 13.623 31.9336C13.6377 31.9336 13.7012 31.9873 13.7598 32.0459ZM22.4414 33.5596L23.7988 34.9121L23.667 35.0488L23.5303 35.1807L22.6953 34.3262C20.8594 32.4512 20.6055 32.1875 20.6055 32.1484C20.6055 32.1289 20.6396 32.0703 20.6836 32.0215C20.7617 31.9385 20.7715 31.9434 20.9229 32.0703C21.0107 32.1436 21.6895 32.8125 22.4414 33.5596ZM25.5078 32.2021C25.6592 32.3438 25.6738 32.5293 25.5371 32.666C25.3369 32.8662 24.9512 32.7148 24.9512 32.4414C24.9512 32.3047 25.1611 32.0801 25.293 32.0801C25.3369 32.0801 25.4346 32.1338 25.5078 32.2021ZM14.3896 32.749L14.5117 32.876L12.4707 34.8877L10.4248 36.8994L10.4102 36.6064L10.3955 36.3184L11.7041 35.0391C12.4219 34.3408 13.2764 33.5059 13.5986 33.1934C13.9209 32.876 14.2041 32.6172 14.2285 32.6172C14.2529 32.6172 14.3262 32.6758 14.3896 32.749ZM41.9092 33.0225C42.0605 33.1934 41.9727 33.3398 41.416 33.8623C41.1279 34.1309 40.3662 34.8535 39.7217 35.4736C39.0771 36.0889 38.0859 37.041 37.5195 37.5781C36.5137 38.54 36.2158 38.7842 35.9717 38.8428C35.9033 38.8623 35.6738 39.0527 35.4639 39.2676C34.8975 39.8486 34.7559 39.9414 34.4385 39.9414C34.2969 39.9414 34.1797 39.9219 34.1797 39.9023C34.1797 39.8828 34.4922 39.5801 34.873 39.2334C35.6055 38.5645 36.3525 37.8564 37.4512 36.792C37.8125 36.4453 38.4814 35.8057 38.9355 35.376C39.3945 34.9463 40.1367 34.2334 40.5908 33.7891C41.0449 33.3447 41.46 32.959 41.5186 32.9248C41.6504 32.8516 41.792 32.8857 41.9092 33.0225ZM19.7363 33.6084C20.3125 34.1846 23.042 37.041 23.54 37.5928C24.1309 38.2422 24.5312 38.5742 25.0488 38.8379C25.5957 39.1211 26.0107 39.2432 26.6602 39.3164C27.7002 39.4336 28.8721 39.1553 29.7168 38.5938C30.2197 38.2617 30.6201 37.9004 31.8115 36.7285C34.0186 34.5508 34.4043 34.1797 34.4629 34.1797C34.4922 34.1797 34.541 34.2236 34.5703 34.2822C34.6387 34.4092 34.7217 34.3164 33.374 35.6396C30.8691 38.1006 30.7129 38.252 30.1904 38.6768C28.7988 39.8242 26.8604 40.1025 25.1758 39.4043C24.3213 39.0479 23.8965 38.6621 21.3086 35.9375C19.7656 34.3115 19.0918 33.5693 19.0918 33.501C19.0918 33.4619 19.3213 33.252 19.3652 33.252C19.375 33.252 19.541 33.4131 19.7363 33.6084ZM15.083 33.4766L15.2051 33.6475L12.8125 36.04L10.4248 38.4277L10.4102 38.1006L10.3906 37.7686L12.6514 35.5322C13.8965 34.3066 14.9268 33.3008 14.9414 33.3008C14.9561 33.3008 15.0195 33.3789 15.083 33.4766ZM31.4648 33.3789C31.4062 33.4277 31.4014 33.4473 31.4453 33.4326C31.5479 33.4033 31.5576 33.6426 31.4551 33.7549C31.3232 33.9062 31.2012 33.9551 31.2012 33.8574C31.2012 33.8086 31.2256 33.7891 31.2744 33.8037C31.3135 33.8232 31.3574 33.8184 31.3672 33.7939C31.4111 33.7256 31.2256 33.75 31.1377 33.8281C31.0791 33.8818 31.0693 33.916 31.1084 33.9404C31.1914 33.9893 31.1084 34.1797 30.9766 34.2383C30.9131 34.2676 30.8594 34.3115 30.8594 34.3359C30.8594 34.3604 30.835 34.3652 30.8105 34.3506C30.7715 34.3262 30.7764 34.2969 30.8154 34.248C30.8447 34.2139 30.8887 34.1943 30.9131 34.209C30.9912 34.2578 30.957 34.2041 30.8545 34.1162C30.791 34.0576 30.7617 34.0527 30.7666 34.0918C30.7812 34.2236 30.7568 34.2773 30.6787 34.2822C30.5957 34.2871 30.5957 34.292 30.6787 34.3115C30.7227 34.3213 30.7617 34.3555 30.7617 34.3896C30.7617 34.4678 30.5615 34.668 30.4785 34.668C30.4346 34.668 30.4199 34.6826 30.4395 34.7021C30.4883 34.751 28.6133 36.5771 28.5547 36.543C28.5254 36.5234 28.5156 36.5283 28.5303 36.5576C28.5498 36.582 28.4033 36.748 28.2129 36.9189C28.0225 37.0898 27.8418 37.2607 27.8125 37.2949C27.7832 37.3291 27.6465 37.4512 27.5098 37.5684C27.3047 37.7393 27.2266 37.7734 27.1094 37.7539L26.958 37.7344L27.1338 37.5439C27.2314 37.4414 27.3291 37.3682 27.3486 37.3828C27.373 37.3975 27.3926 37.3828 27.3926 37.3535C27.3926 37.3242 27.6953 37.002 28.0664 36.6406C28.4326 36.2744 29.2432 35.4736 29.8682 34.8535C30.4932 34.2383 31.0254 33.7451 31.0498 33.7646C31.084 33.7842 31.0889 33.7646 31.0693 33.7109C31.0449 33.6426 31.0547 33.6328 31.123 33.6572C31.1719 33.6768 31.1963 33.6719 31.1768 33.6426C31.1426 33.5889 31.4307 33.3008 31.5137 33.3008C31.5381 33.3008 31.5186 33.335 31.4648 33.3789ZM19.4434 34.7266C23.4814 38.9844 23.8086 39.3018 24.6436 39.7217C26.2256 40.5176 28.3203 40.4541 29.8096 39.5605C30.3369 39.248 30.8545 38.8232 31.6553 38.042C32.0898 37.6221 32.7344 37.0068 33.0811 36.6699C33.4326 36.3379 34.0088 35.7812 34.3604 35.4346C34.9609 34.8535 35.1074 34.7559 35.1074 34.9414C35.1074 34.9854 35.1318 35 35.1709 34.9805C35.2832 34.9121 35.0244 35.1807 33.7891 36.3965C30.9375 39.2139 30.498 39.624 29.8926 40.0342C28.4424 41.0156 26.3037 41.1377 24.6973 40.3271C23.877 39.917 23.6475 39.7021 20.3857 36.377C18.6328 34.5898 18.3105 34.248 18.3105 34.1846C18.3105 34.1211 18.5449 33.8867 18.6084 33.8867C18.6279 33.8867 19.0039 34.2627 19.4434 34.7266ZM15.957 34.2871L16.2012 34.541L15.0195 35.6885C14.375 36.3232 13.125 37.5537 12.2412 38.4229C11.3623 39.2969 10.5811 40.0488 10.5029 40.0977C10.3857 40.1758 10.2783 40.1855 9.86816 40.1758L9.37012 40.1611L10.1904 39.4043C10.9326 38.7158 13.6865 36.0205 15.083 34.6143C15.3955 34.2969 15.6641 34.043 15.6836 34.0381C15.7031 34.0332 15.8252 34.1455 15.957 34.2871ZM28.0713 34.8438C28.2373 35.0244 28.3691 35.2002 28.3691 35.2344C28.3691 35.2686 28.2861 35.3613 28.1885 35.4443L28.0029 35.5957L27.6953 35.2881C27.2607 34.8633 27.251 34.834 27.4512 34.6631C27.5391 34.5898 27.6465 34.5264 27.6953 34.5215C27.7393 34.5215 27.9102 34.668 28.0713 34.8438ZM25.2197 35.1074C25.6543 35.2734 25.8594 35.8643 25.6299 36.2793C25.5273 36.46 25.1514 36.7188 24.9951 36.7188C24.6826 36.7188 24.3213 36.4844 24.1699 36.1768C24.0479 35.9424 24.0479 35.7861 24.165 35.5566C24.3799 35.1367 24.8145 34.9512 25.2197 35.1074ZM17.1973 35.6201C17.1484 35.7031 13.7744 38.9795 13.6914 39.0283C13.6572 39.0479 13.4131 39.0576 13.1494 39.0527L12.6709 39.0381L13.1104 38.6279C13.3496 38.4033 14.2725 37.5146 15.1514 36.6553L16.7578 35.0928L16.9922 35.3271C17.1338 35.4688 17.2168 35.5859 17.1973 35.6201ZM17.7246 36.3965C17.7246 36.4697 17.9053 36.5527 17.9541 36.5039C17.9736 36.4893 17.9492 36.4746 17.9053 36.4746C17.8613 36.4746 17.8125 36.4502 17.7979 36.4258C17.7832 36.3965 17.793 36.377 17.8271 36.377C17.8906 36.377 18.6523 37.1045 18.6523 37.168C18.6523 37.1875 18.418 37.1973 18.1299 37.1875C17.8369 37.1777 17.4072 37.168 17.1729 37.1631C16.8945 37.1582 16.7529 37.1387 16.7725 37.1094C16.792 37.0801 16.8262 37.0703 16.8506 37.085C16.875 37.1045 16.8945 37.0801 16.8945 37.041C16.8945 36.9482 16.9727 36.9385 17.0117 37.0215C17.0264 37.0605 17.0361 37.0557 17.0264 37.0117C17.0166 36.9189 17.1436 36.7578 17.4219 36.5088C17.6416 36.3184 17.7246 36.2842 17.7246 36.3965ZM19.209 37.8516C19.1895 37.8857 19.1943 37.8906 19.2285 37.8711C19.2627 37.8516 19.4287 37.9736 19.6387 38.1738L19.9854 38.5107L19.5752 38.54C19.0576 38.5791 15.9863 38.5791 15.6055 38.5449L15.3223 38.5156L15.459 38.3887C15.5322 38.3154 15.7178 38.1543 15.8643 38.0273L16.1279 37.793H17.6855C18.8525 37.793 19.2334 37.8076 19.209 37.8516ZM38.8135 38.4912C39.1504 38.8184 39.6924 39.3359 40.0146 39.6387L40.6006 40.1855H40.0586H39.5166L38.584 39.2383C38.0664 38.7158 37.6465 38.2568 37.6465 38.2129C37.6465 38.1055 37.9297 37.8906 38.0713 37.8906C38.1641 37.8906 38.3496 38.042 38.8135 38.4912ZM38.2812 39.9023C38.2812 39.9219 37.876 39.9316 37.3779 39.9268C36.8799 39.9219 36.4746 39.9023 36.4746 39.8877C36.4746 39.8682 36.5527 39.8047 36.6455 39.7412C36.7383 39.6777 36.8164 39.6094 36.8164 39.5898C36.8164 39.5703 36.9629 39.4434 37.1436 39.3115L37.4707 39.0625L37.876 39.4629C38.1006 39.6875 38.2812 39.8828 38.2812 39.9023ZM13.5254 39.2236C13.4863 39.2627 13.2959 39.4385 13.1006 39.6143L12.749 39.9414H12.2217L11.6943 39.9365L12.1094 39.5508L12.5244 39.1602H13.0615C13.5107 39.1602 13.584 39.1699 13.5254 39.2236ZM20.5957 39.2383C20.7568 39.2578 20.8008 39.2822 20.7812 39.3359C20.7666 39.375 20.7764 39.3945 20.8008 39.3799C20.8398 39.3555 21.3867 39.8438 21.3867 39.9023C21.3867 39.917 19.6875 39.9219 17.6074 39.9219L13.8232 39.917L13.9258 39.8096C13.9844 39.751 14.0479 39.7119 14.0674 39.7266C14.0918 39.7412 14.1016 39.7217 14.0869 39.6875C14.0723 39.6533 14.126 39.5801 14.209 39.5264C14.2871 39.4727 14.3555 39.4141 14.3555 39.3896C14.3555 39.3701 14.3848 39.3555 14.4238 39.3555C14.4629 39.3555 14.502 39.3213 14.5166 39.2822C14.5361 39.2334 14.6484 39.209 14.9023 39.1992C15.4541 39.1699 20.3613 39.2041 20.5957 39.2383ZM10.3467 40.2686C10.3418 40.3467 9.81445 40.7715 9.69238 40.8008C9.51172 40.8447 9.28223 40.7324 9.24316 40.5811C9.19922 40.4248 9.21875 40.3223 9.29199 40.2734C9.37012 40.2246 10.3516 40.2246 10.3467 40.2686ZM40.6543 40.2734C40.6836 40.293 40.7227 40.3564 40.7422 40.4199C40.7715 40.5029 40.7422 40.5615 40.6299 40.6738C40.3857 40.918 40.1123 40.8447 39.7754 40.4443L39.6436 40.2881L39.7559 40.2686C39.9512 40.2344 40.5957 40.2344 40.6543 40.2734Z" fill="black"/>
<path d="M28.6034 31.1865C28.4423 31.3428 28.413 31.3574 28.3349 31.2988C28.2665 31.2451 28.2567 31.2451 28.3056 31.2939C28.3544 31.3477 28.33 31.4014 28.1933 31.5576C28.0028 31.7822 27.9931 31.8164 28.1151 31.8555C28.1591 31.875 28.2714 31.9531 28.3642 32.0312L28.5302 32.1777L28.8817 31.8506C29.077 31.665 29.2382 31.499 29.2431 31.4697C29.2479 31.4258 28.8622 31.0059 28.8085 31.0059C28.7938 31.0059 28.7011 31.0889 28.6034 31.1865Z" fill="black"/>
</g>
<defs>
<clipPath id="clip0_52_46">
<rect width="50" height="50" fill="white"/>
</clipPath>
</defs>
</svg>
